<svg width="25" height="25" viewBox="0 0 25 25" fill="none" xmlns="http://www.w3.org/2000/svg">
<g clip-path="url(#clip0_2748_4717)">
<path d="M4.22607 20.8474C3.19062 19.8119 3.87739 17.638 3.35036 16.3642C2.80401 15.0438 1.69922 13.981 1.69922 12.5742C1.69922 11.1673 2.80402 10.1046 3.35036 8.78418C3.8774 7.5104 3.19062 5.33652 4.22607 4.30107C5.26152 3.26562 7.43541 3.95239 8.70919 3.42536C10.0297 2.87901 11.0923 2.07422 12.4992 2.07422C13.906 2.07422 14.9688 2.87902 16.2893 3.42536C17.563 3.9524 19.7369 3.26562 20.7724 4.30107C21.8078 5.33652 21.121 7.51041 21.6481 8.78419C22.1944 10.1047 23.2992 11.1673 23.2992 12.5742C23.2992 13.981 22.1944 15.0438 21.6481 16.3643C21.121 17.638 21.8078 19.8119 20.7724 20.8474C19.7369 21.8828 17.563 21.196 16.2892 21.7231C14.9688 22.2694 13.906 23.6742 12.4992 23.6742C11.0923 23.6742 10.0296 22.2694 8.70918 21.7231C7.4354 21.196 5.26152 21.8828 4.22607 20.8474Z" stroke="white" stroke-width="1.5" stroke-linecap="round" stroke-linejoin="round"/>
<path d="M12.5004 20.075C13.246 20.075 13.8504 19.4706 13.8504 18.725C13.8504 17.9794 13.246 17.375 12.5004 17.375C11.7548 17.375 11.1504 17.9794 11.1504 18.725C11.1504 19.4706 11.7548 20.075 12.5004 20.075Z" fill="white"/>
<path d="M12.4996 14.6746V13.7746C13.1226 13.7746 13.7316 13.5899 14.2497 13.2437C14.7677 12.8976 15.1714 12.4057 15.4098 11.8301C15.6482 11.2545 15.7106 10.6211 15.5891 10.0101C15.4675 9.39904 15.1675 8.83776 14.727 8.39722C14.2865 7.95669 13.7252 7.65668 13.1141 7.53514C12.5031 7.41359 11.8697 7.47597 11.2942 7.71439C10.7186 7.95281 10.2266 8.35655 9.88048 8.87456C9.53435 9.39258 9.34961 10.0016 9.34961 10.6246" stroke="white" stroke-width="1.5" stroke-linecap="round" stroke-linejoin="round"/>
</g>
<defs>
<clipPath id="clip0_2748_4717">
<rect width="24" height="24" fill="white" transform="translate(0.5 0.875)"/>
</clipPath>
</defs>
</svg>
