<svg width="25" height="25" viewBox="0 0 25 25" fill="none" xmlns="http://www.w3.org/2000/svg">
<path d="M12.5006 10.625V4.25C12.5006 3.75272 12.3031 3.27581 11.9514 2.92417C11.5998 2.57254 11.1229 2.375 10.6256 2.375C10.1283 2.375 9.6514 2.57254 9.29977 2.92417C8.94814 3.27581 8.7506 3.75272 8.7506 4.25V15.6187L6.69489 12.0581C6.57189 11.8447 6.40803 11.6575 6.21267 11.5074C6.01732 11.3573 5.79429 11.2472 5.55636 11.1833C5.31842 11.1195 5.07022 11.1031 4.82596 11.1352C4.5817 11.1673 4.34617 11.2473 4.13281 11.3705C3.91946 11.4936 3.73247 11.6577 3.58254 11.8531C3.4326 12.0486 3.32266 12.2717 3.259 12.5097C3.19534 12.7477 3.1792 12.9959 3.21151 13.2402C3.24382 13.4844 3.32394 13.7199 3.4473 13.9331C6.5006 20.375 8.35846 22.625 12.5006 22.625C13.4855 22.625 14.4608 22.431 15.3707 22.0541C16.2807 21.6772 17.1075 21.1247 17.8039 20.4283C18.5003 19.7319 19.0528 18.9051 19.4297 17.9951C19.8066 17.0852 20.0006 16.1099 20.0006 15.125V11.375C20.0006 10.8777 19.8031 10.4008 19.4514 10.0492C19.0998 9.69754 18.6229 9.5 18.1256 9.5C17.6283 9.5 17.1514 9.69754 16.7998 10.0492C16.4481 10.4008 16.2506 10.8777 16.2506 11.375" stroke="white" stroke-width="1.5" stroke-linecap="round" stroke-linejoin="round"/>
<path d="M16.25 11.375V10.25C16.25 9.75272 16.0525 9.27581 15.7008 8.92417C15.3492 8.57254 14.8723 8.375 14.375 8.375C13.8777 8.375 13.4008 8.57254 13.0492 8.92417C12.6975 9.27581 12.5 9.75272 12.5 10.25V10.625" stroke="white" stroke-width="1.5" stroke-linecap="round" stroke-linejoin="round"/>
</svg>
