<svg width="25" height="25" viewBox="0 0 25 25" fill="none" xmlns="http://www.w3.org/2000/svg">
<path d="M7.01274 15.0941C6.60071 16.1995 5.94919 17.2933 5.07702 18.3464C4.79937 18.6815 4.76434 19.16 4.98918 19.5368C5.16277 19.8264 5.45402 19.9915 5.76305 19.9915C5.84985 19.9915 5.93874 19.9787 6.02606 19.9514C7.87446 19.3773 12.1867 17.3383 12.3028 10.8204C12.3477 8.30337 10.6154 6.14148 8.36022 5.89806C7.11732 5.76579 5.8739 6.19484 4.95205 7.08015C4.02968 7.96658 3.5 9.23204 3.5 10.5525C3.5 12.7555 4.9714 14.6818 7.01274 15.0941ZM5.79337 8.06995C6.37953 7.50697 7.11732 7.20687 7.89955 7.20687C8.01041 7.20687 8.12178 7.21298 8.23368 7.22521C9.84416 7.3986 11.0808 8.96694 11.0478 10.7948C10.9678 15.3048 8.67029 17.3355 6.76751 18.2436C7.36987 17.3783 7.84256 16.488 8.1793 15.5854C8.31054 15.2342 8.28858 14.8413 8.11969 14.5078C7.94295 14.1582 7.62765 13.9098 7.25536 13.827C5.80645 13.5047 4.75492 12.1275 4.75492 10.5525C4.75492 9.60884 5.13349 8.70351 5.79337 8.06995Z" fill="white"/>
<path d="M15.1855 19.5375C15.3591 19.827 15.6508 19.9921 15.9593 19.9921C16.0461 19.9921 16.1345 19.9793 16.2223 19.9521C18.0713 19.378 22.383 17.3389 22.4991 10.821C22.543 8.30399 20.8117 6.1421 18.556 5.89868C17.3115 5.76419 16.0702 6.19545 15.1483 7.08077C14.2254 7.9672 13.6963 9.23266 13.6963 10.5531C13.6963 12.7561 15.1677 14.6824 17.2085 15.0948C16.796 16.2013 16.145 17.295 15.2728 18.3476C14.9946 18.6827 14.9596 19.1612 15.1855 19.5375ZM18.3745 15.5866C18.5058 15.2354 18.4843 14.8424 18.3155 14.509C18.1382 14.1589 17.8234 13.911 17.4506 13.8276C16.0017 13.5053 14.9502 12.1281 14.9502 10.5531C14.9502 9.6089 15.3287 8.70413 15.9886 8.07057C16.5742 7.50759 17.312 7.20748 18.0948 7.20748C18.2051 7.20748 18.3165 7.2136 18.4289 7.22582C20.0394 7.39922 21.276 8.96756 21.2431 10.7954C21.1636 15.3059 18.8655 17.3361 16.9628 18.2442C17.5651 17.3795 18.0378 16.4891 18.3745 15.5866Z" fill="white"/>
</svg>
